<svg xmlns="http://www.w3.org/2000/svg" width="100%" height="100%" viewBox="0 0 240 240" class="s-Il1Iuc82kfRE"><path fill="lightblue" stroke="green" d="M 120,120
		l 0 -10 l 10 -6.123233995736766e-16 l 0 -10 l -10 1.8369701987210296e-15 l -10 1.8369701987210296e-15 l 0 -10 l 10 -6.123233995736766e-16 l 0 -10 l 10 -6.123233995736766e-16 l 1.2246467991473533e-15 10 l 10 -6.123233995736766e-16 l 0 -10 l 0 -10 l 10 -6.123233995736766e-16 l 1.2246467991473533e-15 10 l 10 -6.123233995736766e-16 l 1.2246467991473533e-15 10 l -10 1.8369701987210296e-15 l 1.2246467991473533e-15 10 l 10 -6.123233995736766e-16 l 10 -6.123233995736766e-16 l 1.2246467991473533e-15 10 l -10 1.8369701987210296e-15 l 1.2246467991473533e-15 10 l -10 1.8369701987210296e-15 l 0 -10 l -10 1.8369701987210296e-15 l 1.2246467991473533e-15 10 l 1.2246467991473533e-15 10 l -10 1.8369701987210296e-15 l 0 -10 l -10 1.8369701987210296e-15
      " class="s-Il1Iuc82kfRE"></path></svg>
